<?xml version="1.0" encoding="UTF-8" standalone="no"?>
<!-- Creator: CorelDRAW X8 -->

<svg
   xml:space="preserve"
   width="86.063194mm"
   height="86.064796mm"
   version="1.1"
   style="clip-rule:evenodd;fill-rule:evenodd;image-rendering:optimizeQuality;shape-rendering:geometricPrecision;text-rendering:geometricPrecision"
   viewBox="0 0 12369.999 12370"
   id="svg2"
   xmlns="http://www.w3.org/2000/svg"
   xmlns:svg="http://www.w3.org/2000/svg">
 <defs
   id="defs1"><style
     type="text/css"
     id="style1">
   <![CDATA[
    .fil0 {fill:none}
    .fil1 {fill:black}
    .fil2 {fill:white}
   ]]>
  </style></defs>
 <g
   id="arqfi_isotipo">
  <metadata
   id="CorelCorpID_0Corel-Layer" />
  <g
   id="arqfi_isotipo1">
   <polygon
   id="border_x0020_"
   class="fil0"
   points="12370,12370 0,12370 0,0 12370,0 " />
   <g
   id="isotipo">
    <path
   class="fil1"
   d="M 5380,2106 H 2106 v 8158 H 5380 V 9497 C 3887,9135 2778,7790 2778,6185 2778,4581 3887,3235 5380,2874 Z m 1610,0 v 768 c 1493,361 2603,1707 2603,3311 0,1605 -1110,2950 -2603,3312 v 767 h 3274 V 2106 Z M 5380,7793 V 4578 c -588,295 -992,904 -992,1607 0,704 404,1313 992,1608 z M 6990,4578 v 3215 c 589,-295 993,-904 993,-1608 0,-703 -404,-1312 -993,-1607 z"
   id="path1"
   style="fill:#a3cc52;fill-opacity:1" />
    <g
   id="g2">
     <path
   class="fil2"
   d="m 5380,672 h 1610 v 2202 c 1493,361 2603,1707 2603,3311 0,1605 -1110,2950 -2603,3312 v 2202 H 5380 V 9497 C 3887,9135 2778,7790 2778,6185 2778,4581 3887,3235 5380,2874 Z m 1610,3906 v 3215 c 589,-295 993,-904 993,-1608 0,-703 -404,-1312 -993,-1607 z M 5380,7793 V 4578 c -588,295 -992,904 -992,1607 0,704 404,1313 992,1608 z"
   id="path2" />
     <path
   id="1"
   class="fil1"
   d="m 5380,672 h 1610 v 2202 c 1493,361 2603,1707 2603,3311 0,1605 -1110,2950 -2603,3312 v 2202 H 5380 V 9497 C 3887,9135 2778,7790 2778,6185 2778,4581 3887,3235 5380,2874 Z m 1610,3906 v 3215 c 589,-295 993,-904 993,-1608 0,-703 -404,-1312 -993,-1607 z M 5380,7793 V 4578 c -588,295 -992,904 -992,1607 0,704 404,1313 992,1608 z M 6918,743 H 5452 v 2131 56 l -55,13 c -738,179 -1381,604 -1836,1183 -446,567 -711,1282 -711,2059 0,778 265,1493 711,2059 455,580 1098,1004 1836,1183 l 55,14 v 56 2130 h 1466 v -2130 -56 l 55,-14 C 7712,9248 8354,8824 8809,8244 9255,7678 9521,6963 9521,6185 9521,5408 9255,4693 8809,4126 8354,3547 7712,3122 6973,2943 l -55,-13 v -56 z m 0,7050 V 4578 4462 l 104,52 c 311,156 573,396 755,691 176,285 278,621 278,980 0,360 -102,695 -278,981 -182,294 -444,535 -755,691 l -104,52 z M 5452,4578 v 3215 116 l -104,-52 c -311,-156 -573,-397 -754,-691 -177,-286 -278,-621 -278,-981 0,-359 101,-695 278,-980 181,-295 443,-535 754,-691 l 104,-52 z"
   style="fill:#a3cc52;fill-opacity:1" />
    </g>
   </g>
  </g>
 </g>
</svg>
